<mxfile host="app.diagrams.net" agent="Mozilla/5.0 (Windows NT 10.0; Win64; x64) AppleWebKit/537.36 (KHTML, like Gecko) Chrome/136.0.0.0 Safari/537.36" version="27.0.6">
  <diagram name="Page-1" id="FqSsDV_Vvq3bncGaE_Uc">
    <mxGraphModel dx="1901" dy="1129" grid="1" gridSize="10" guides="1" tooltips="1" connect="1" arrows="1" fold="1" page="1" pageScale="1" pageWidth="850" pageHeight="1100" math="0" shadow="0">
      <root>
        <mxCell id="0" />
        <mxCell id="1" parent="0" />
        <object label="&lt;b&gt;P2.1&lt;/b&gt;" id="4X5UwBAWRuWiEqOUw2Zo-1">
          <mxCell style="swimlane;childLayout=stackLayout;horizontal=1;startSize=40;horizontalStack=0;rounded=1;fontSize=14;fontStyle=0;strokeWidth=2;resizeParent=0;resizeLast=1;shadow=0;dashed=0;align=center;arcSize=4;whiteSpace=wrap;html=1;" vertex="1" parent="1">
            <mxGeometry x="330" y="90" width="160" height="80" as="geometry" />
          </mxCell>
        </object>
        <mxCell id="4X5UwBAWRuWiEqOUw2Zo-2" value="&lt;div&gt;&lt;span style=&quot;background-color: transparent; color: light-dark(rgb(0, 0, 0), rgb(255, 255, 255));&quot;&gt;&lt;font&gt;Učitavanje sadržaja&lt;/font&gt;&lt;/span&gt;&lt;/div&gt;" style="align=center;strokeColor=none;fillColor=none;spacingLeft=4;fontSize=12;verticalAlign=top;resizable=0;rotatable=0;part=1;html=1;" vertex="1" parent="4X5UwBAWRuWiEqOUw2Zo-1">
          <mxGeometry y="40" width="160" height="40" as="geometry" />
        </mxCell>
        <mxCell id="4X5UwBAWRuWiEqOUw2Zo-3" style="edgeStyle=none;curved=1;rounded=0;orthogonalLoop=1;jettySize=auto;html=1;fontSize=12;startSize=8;endSize=8;" edge="1" parent="1" source="4X5UwBAWRuWiEqOUw2Zo-2" target="4X5UwBAWRuWiEqOUw2Zo-7">
          <mxGeometry relative="1" as="geometry">
            <mxPoint x="410" y="190" as="targetPoint" />
          </mxGeometry>
        </mxCell>
        <mxCell id="4X5UwBAWRuWiEqOUw2Zo-5" style="edgeStyle=none;curved=1;rounded=0;orthogonalLoop=1;jettySize=auto;html=1;entryX=0;entryY=0.25;entryDx=0;entryDy=0;fontSize=12;startSize=8;endSize=8;" edge="1" parent="1" source="4X5UwBAWRuWiEqOUw2Zo-4" target="4X5UwBAWRuWiEqOUw2Zo-2">
          <mxGeometry relative="1" as="geometry" />
        </mxCell>
        <mxCell id="4X5UwBAWRuWiEqOUw2Zo-6" value="Video datoteke" style="edgeLabel;html=1;align=center;verticalAlign=middle;resizable=0;points=[];fontSize=12;" vertex="1" connectable="0" parent="4X5UwBAWRuWiEqOUw2Zo-5">
          <mxGeometry x="-0.2857" y="3" relative="1" as="geometry">
            <mxPoint x="14" y="-13" as="offset" />
          </mxGeometry>
        </mxCell>
        <mxCell id="4X5UwBAWRuWiEqOUw2Zo-4" value="&lt;b&gt;Dobavljač sadržaja&lt;/b&gt;" style="rounded=0;whiteSpace=wrap;html=1;" vertex="1" parent="1">
          <mxGeometry x="80" y="100" width="120" height="60" as="geometry" />
        </mxCell>
        <object label="&lt;b&gt;P2.2&lt;/b&gt;" id="4X5UwBAWRuWiEqOUw2Zo-7">
          <mxCell style="swimlane;childLayout=stackLayout;horizontal=1;startSize=40;horizontalStack=0;rounded=1;fontSize=14;fontStyle=0;strokeWidth=2;resizeParent=0;resizeLast=1;shadow=0;dashed=0;align=center;arcSize=4;whiteSpace=wrap;html=1;" vertex="1" parent="1">
            <mxGeometry x="330" y="240" width="160" height="110" as="geometry" />
          </mxCell>
        </object>
        <mxCell id="4X5UwBAWRuWiEqOUw2Zo-8" value="&lt;div&gt;&lt;span style=&quot;background-color: transparent; color: light-dark(rgb(0, 0, 0), rgb(255, 255, 255));&quot;&gt;&lt;font&gt;Kategorizacija u žanrove,&amp;nbsp;&lt;/font&gt;&lt;/span&gt;&lt;/div&gt;&lt;div&gt;&lt;span style=&quot;background-color: transparent; color: light-dark(rgb(0, 0, 0), rgb(255, 255, 255));&quot;&gt;&lt;font&gt;tagiranje prema glumcima i dr.&lt;/font&gt;&lt;/span&gt;&lt;/div&gt;&lt;div&gt;&lt;span style=&quot;background-color: transparent; color: light-dark(rgb(0, 0, 0), rgb(255, 255, 255));&quot;&gt;Povezivanje s preporučenim&lt;/span&gt;&lt;/div&gt;&lt;div&gt;&lt;span style=&quot;background-color: transparent; color: light-dark(rgb(0, 0, 0), rgb(255, 255, 255));&quot;&gt;sadržajem.&lt;/span&gt;&lt;/div&gt;" style="align=center;strokeColor=none;fillColor=none;spacingLeft=4;fontSize=12;verticalAlign=top;resizable=0;rotatable=0;part=1;html=1;" vertex="1" parent="4X5UwBAWRuWiEqOUw2Zo-7">
          <mxGeometry y="40" width="160" height="70" as="geometry" />
        </mxCell>
        <object label="&lt;b&gt;P2.3&lt;/b&gt;" id="4X5UwBAWRuWiEqOUw2Zo-9">
          <mxCell style="swimlane;childLayout=stackLayout;horizontal=1;startSize=40;horizontalStack=0;rounded=1;fontSize=14;fontStyle=0;strokeWidth=2;resizeParent=0;resizeLast=1;shadow=0;dashed=0;align=center;arcSize=4;whiteSpace=wrap;html=1;" vertex="1" parent="1">
            <mxGeometry x="330" y="420" width="160" height="100" as="geometry" />
          </mxCell>
        </object>
        <mxCell id="4X5UwBAWRuWiEqOUw2Zo-10" value="&lt;div&gt;Ažuriranje metapodataka,&lt;/div&gt;&lt;div&gt;dodavanje, uređivanje opisa,&lt;/div&gt;&lt;div&gt;integracija titlova&lt;/div&gt;" style="align=center;strokeColor=none;fillColor=none;spacingLeft=4;fontSize=12;verticalAlign=top;resizable=0;rotatable=0;part=1;html=1;" vertex="1" parent="4X5UwBAWRuWiEqOUw2Zo-9">
          <mxGeometry y="40" width="160" height="60" as="geometry" />
        </mxCell>
        <mxCell id="4X5UwBAWRuWiEqOUw2Zo-11" style="edgeStyle=none;curved=1;rounded=0;orthogonalLoop=1;jettySize=auto;html=1;exitX=0.5;exitY=1;exitDx=0;exitDy=0;entryX=0.5;entryY=0;entryDx=0;entryDy=0;fontSize=12;startSize=8;endSize=8;" edge="1" parent="1" source="4X5UwBAWRuWiEqOUw2Zo-8" target="4X5UwBAWRuWiEqOUw2Zo-9">
          <mxGeometry relative="1" as="geometry" />
        </mxCell>
        <mxCell id="4X5UwBAWRuWiEqOUw2Zo-15" value="&lt;div&gt;&lt;br&gt;&lt;/div&gt;Baza podataka" style="strokeWidth=2;html=1;shape=mxgraph.flowchart.database;whiteSpace=wrap;" vertex="1" parent="1">
          <mxGeometry x="620" y="265" width="60" height="60" as="geometry" />
        </mxCell>
        <mxCell id="4X5UwBAWRuWiEqOUw2Zo-16" style="edgeStyle=none;curved=1;rounded=0;orthogonalLoop=1;jettySize=auto;html=1;exitX=1;exitY=0.5;exitDx=0;exitDy=0;entryX=0.5;entryY=0;entryDx=0;entryDy=0;entryPerimeter=0;fontSize=12;startSize=8;endSize=8;" edge="1" parent="1" source="4X5UwBAWRuWiEqOUw2Zo-1" target="4X5UwBAWRuWiEqOUw2Zo-15">
          <mxGeometry relative="1" as="geometry" />
        </mxCell>
        <mxCell id="4X5UwBAWRuWiEqOUw2Zo-17" value="Spremanje" style="edgeLabel;html=1;align=center;verticalAlign=middle;resizable=0;points=[];fontSize=12;" vertex="1" connectable="0" parent="4X5UwBAWRuWiEqOUw2Zo-16">
          <mxGeometry x="-0.1845" y="-4" relative="1" as="geometry">
            <mxPoint x="1" y="-13" as="offset" />
          </mxGeometry>
        </mxCell>
        <mxCell id="4X5UwBAWRuWiEqOUw2Zo-20" style="edgeStyle=none;curved=1;rounded=0;orthogonalLoop=1;jettySize=auto;html=1;exitX=1;exitY=0.25;exitDx=0;exitDy=0;entryX=0;entryY=0.5;entryDx=0;entryDy=0;entryPerimeter=0;fontSize=12;startSize=8;endSize=8;" edge="1" parent="1" source="4X5UwBAWRuWiEqOUw2Zo-8" target="4X5UwBAWRuWiEqOUw2Zo-15">
          <mxGeometry relative="1" as="geometry" />
        </mxCell>
        <mxCell id="4X5UwBAWRuWiEqOUw2Zo-21" value="Žanrovi i tagovi" style="edgeLabel;html=1;align=center;verticalAlign=middle;resizable=0;points=[];fontSize=12;" vertex="1" connectable="0" parent="4X5UwBAWRuWiEqOUw2Zo-20">
          <mxGeometry x="-0.0659" y="3" relative="1" as="geometry">
            <mxPoint as="offset" />
          </mxGeometry>
        </mxCell>
        <mxCell id="4X5UwBAWRuWiEqOUw2Zo-22" style="edgeStyle=none;curved=1;rounded=0;orthogonalLoop=1;jettySize=auto;html=1;exitX=1;exitY=0.25;exitDx=0;exitDy=0;entryX=0.5;entryY=1;entryDx=0;entryDy=0;entryPerimeter=0;fontSize=12;startSize=8;endSize=8;" edge="1" parent="1" source="4X5UwBAWRuWiEqOUw2Zo-10" target="4X5UwBAWRuWiEqOUw2Zo-15">
          <mxGeometry relative="1" as="geometry" />
        </mxCell>
        <mxCell id="4X5UwBAWRuWiEqOUw2Zo-23" value="Opisi, titlovi" style="edgeLabel;html=1;align=center;verticalAlign=middle;resizable=0;points=[];fontSize=12;" vertex="1" connectable="0" parent="4X5UwBAWRuWiEqOUw2Zo-22">
          <mxGeometry x="-0.234" y="-2" relative="1" as="geometry">
            <mxPoint y="-9" as="offset" />
          </mxGeometry>
        </mxCell>
        <mxCell id="4X5UwBAWRuWiEqOUw2Zo-25" style="edgeStyle=none;curved=1;rounded=0;orthogonalLoop=1;jettySize=auto;html=1;exitX=1;exitY=0;exitDx=0;exitDy=0;entryX=0;entryY=0.75;entryDx=0;entryDy=0;fontSize=12;startSize=8;endSize=8;" edge="1" parent="1" source="4X5UwBAWRuWiEqOUw2Zo-24" target="4X5UwBAWRuWiEqOUw2Zo-2">
          <mxGeometry relative="1" as="geometry" />
        </mxCell>
        <mxCell id="4X5UwBAWRuWiEqOUw2Zo-26" value="Ažuriranje kataloga" style="edgeLabel;html=1;align=center;verticalAlign=middle;resizable=0;points=[];fontSize=12;" vertex="1" connectable="0" parent="4X5UwBAWRuWiEqOUw2Zo-25">
          <mxGeometry x="-0.2898" y="-1" relative="1" as="geometry">
            <mxPoint as="offset" />
          </mxGeometry>
        </mxCell>
        <mxCell id="4X5UwBAWRuWiEqOUw2Zo-27" style="edgeStyle=none;curved=1;rounded=0;orthogonalLoop=1;jettySize=auto;html=1;exitX=1;exitY=0.5;exitDx=0;exitDy=0;entryX=0;entryY=0.5;entryDx=0;entryDy=0;fontSize=12;startSize=8;endSize=8;" edge="1" parent="1" source="4X5UwBAWRuWiEqOUw2Zo-24" target="4X5UwBAWRuWiEqOUw2Zo-7">
          <mxGeometry relative="1" as="geometry" />
        </mxCell>
        <mxCell id="4X5UwBAWRuWiEqOUw2Zo-28" value="Kategorizacija" style="edgeLabel;html=1;align=center;verticalAlign=middle;resizable=0;points=[];fontSize=12;" vertex="1" connectable="0" parent="4X5UwBAWRuWiEqOUw2Zo-27">
          <mxGeometry x="-0.4601" y="-1" relative="1" as="geometry">
            <mxPoint x="25" y="-1" as="offset" />
          </mxGeometry>
        </mxCell>
        <mxCell id="4X5UwBAWRuWiEqOUw2Zo-29" style="edgeStyle=none;curved=1;rounded=0;orthogonalLoop=1;jettySize=auto;html=1;exitX=1;exitY=1;exitDx=0;exitDy=0;entryX=0;entryY=0.25;entryDx=0;entryDy=0;fontSize=12;startSize=8;endSize=8;" edge="1" parent="1" source="4X5UwBAWRuWiEqOUw2Zo-24" target="4X5UwBAWRuWiEqOUw2Zo-10">
          <mxGeometry relative="1" as="geometry" />
        </mxCell>
        <mxCell id="4X5UwBAWRuWiEqOUw2Zo-30" value="Unos titlova" style="edgeLabel;html=1;align=center;verticalAlign=middle;resizable=0;points=[];fontSize=12;" vertex="1" connectable="0" parent="4X5UwBAWRuWiEqOUw2Zo-29">
          <mxGeometry x="-0.5206" y="-2" relative="1" as="geometry">
            <mxPoint x="11" y="18" as="offset" />
          </mxGeometry>
        </mxCell>
        <mxCell id="4X5UwBAWRuWiEqOUw2Zo-24" value="&lt;b&gt;Administrator&lt;/b&gt;" style="rounded=0;whiteSpace=wrap;html=1;" vertex="1" parent="1">
          <mxGeometry x="80" y="265" width="120" height="60" as="geometry" />
        </mxCell>
      </root>
    </mxGraphModel>
  </diagram>
</mxfile>
